<svg xmlns="http://www.w3.org/2000/svg" width="1370" height="1108" viewBox="0 0 1370 1108"><rect width="100%" height="100%" fill="#fff"/>
<text x="685.0" y="28.0" font-family="Arial, Helvetica, sans-serif" font-size="16" text-anchor="middle" font-weight="bold" fill="#111">Sequence Diagram 2 - UC-06 Return Equipment</text>
<line x1="147.5" y1="148.0" x2="147.5" y2="1084.0" stroke="#777" stroke-width="1.4" stroke-dasharray="5,4"/>
<line x1="362.5" y1="106.0" x2="362.5" y2="1084.0" stroke="#777" stroke-width="1.4" stroke-dasharray="5,4"/>
<line x1="577.5" y1="106.0" x2="577.5" y2="1084.0" stroke="#777" stroke-width="1.4" stroke-dasharray="5,4"/>
<line x1="792.5" y1="106.0" x2="792.5" y2="1084.0" stroke="#777" stroke-width="1.4" stroke-dasharray="5,4"/>
<line x1="1007.5" y1="106.0" x2="1007.5" y2="1084.0" stroke="#777" stroke-width="1.4" stroke-dasharray="5,4"/>
<line x1="1222.5" y1="106.0" x2="1222.5" y2="1084.0" stroke="#777" stroke-width="1.4" stroke-dasharray="5,4"/>
<ellipse cx="147.5" cy="62.0" rx="10" ry="10" fill="#fff" stroke="#222" stroke-width="1.4"/>
<line x1="147.5" y1="72.0" x2="147.5" y2="104.0" stroke="#222" stroke-width="1.4"/>
<line x1="130.5" y1="83.0" x2="164.5" y2="83.0" stroke="#222" stroke-width="1.4"/>
<line x1="147.5" y1="104.0" x2="132.5" y2="128.0" stroke="#222" stroke-width="1.4"/>
<line x1="147.5" y1="104.0" x2="162.5" y2="128.0" stroke="#222" stroke-width="1.4"/>
<text x="147.5" y="146.0" font-family="Arial, Helvetica, sans-serif" font-size="12.5" text-anchor="middle" font-weight="bold" fill="#111">Lab Technician</text>
<rect x="270.0" y="52.0" width="185.0" height="50.0" rx="0" fill="#dbe8fb" stroke="#222" stroke-width="1.5"/>
<text x="362.5" y="66.0" font-family="Arial, Helvetica, sans-serif" font-size="9.5" text-anchor="middle" font-weight="normal" fill="#444" font-style="italic">«component»</text>
<text x="362.5" y="81.0" font-family="Arial, Helvetica, sans-serif" font-size="12" text-anchor="middle" font-weight="bold" fill="#111">Web Client</text>
<text x="362.5" y="94.0" font-family="Arial, Helvetica, sans-serif" font-size="12" text-anchor="middle" font-weight="bold" fill="#111">(C-01)</text>
<rect x="485.0" y="52.0" width="185.0" height="50.0" rx="0" fill="#dbe8fb" stroke="#222" stroke-width="1.5"/>
<text x="577.5" y="66.0" font-family="Arial, Helvetica, sans-serif" font-size="9.5" text-anchor="middle" font-weight="normal" fill="#444" font-style="italic">«component»</text>
<text x="577.5" y="81.0" font-family="Arial, Helvetica, sans-serif" font-size="12" text-anchor="middle" font-weight="bold" fill="#111">API Layer</text>
<text x="577.5" y="94.0" font-family="Arial, Helvetica, sans-serif" font-size="12" text-anchor="middle" font-weight="bold" fill="#111">(C-02)</text>
<rect x="700.0" y="52.0" width="185.0" height="50.0" rx="0" fill="#dbe8fb" stroke="#222" stroke-width="1.5"/>
<text x="792.5" y="66.0" font-family="Arial, Helvetica, sans-serif" font-size="9.5" text-anchor="middle" font-weight="normal" fill="#444" font-style="italic">«component»</text>
<text x="792.5" y="81.0" font-family="Arial, Helvetica, sans-serif" font-size="12" text-anchor="middle" font-weight="bold" fill="#111">Return &amp; Penalty Service</text>
<text x="792.5" y="94.0" font-family="Arial, Helvetica, sans-serif" font-size="12" text-anchor="middle" font-weight="bold" fill="#111">(C-08)</text>
<rect x="915.0" y="52.0" width="185.0" height="50.0" rx="0" fill="#dbe8fb" stroke="#222" stroke-width="1.5"/>
<text x="1007.5" y="66.0" font-family="Arial, Helvetica, sans-serif" font-size="9.5" text-anchor="middle" font-weight="normal" fill="#444" font-style="italic">«component»</text>
<text x="1007.5" y="81.0" font-family="Arial, Helvetica, sans-serif" font-size="12" text-anchor="middle" font-weight="bold" fill="#111">Data Access Layer</text>
<text x="1007.5" y="94.0" font-family="Arial, Helvetica, sans-serif" font-size="12" text-anchor="middle" font-weight="bold" fill="#111">(C-11)</text>
<rect x="1130.0" y="52.0" width="185.0" height="50.0" rx="0" fill="#dbe8fb" stroke="#222" stroke-width="1.5"/>
<text x="1222.5" y="66.0" font-family="Arial, Helvetica, sans-serif" font-size="9.5" text-anchor="middle" font-weight="normal" fill="#444" font-style="italic">«component»</text>
<text x="1222.5" y="81.0" font-family="Arial, Helvetica, sans-serif" font-size="12" text-anchor="middle" font-weight="bold" fill="#111">Audit Logger</text>
<text x="1222.5" y="94.0" font-family="Arial, Helvetica, sans-serif" font-size="12" text-anchor="middle" font-weight="bold" fill="#111">(C-10)</text>
<rect x="22.0" y="312.0" width="1326.0" height="708.0" rx="0" fill="none" stroke="#444" stroke-width="1.2"/>
<polygon points="22.0,312.0 58.0,312.0 58.0,324.0 51.0,332.0 22.0,332.0" fill="#eee" stroke="#444" stroke-width="1.2"/>
<text x="29.0" y="326.0" font-family="Arial, Helvetica, sans-serif" font-size="11.5" text-anchor="start" font-weight="bold" fill="#111">alt</text>
<line x1="22.0" y1="364.0" x2="1348.0" y2="364.0" stroke="#444" stroke-width="1.2" stroke-dasharray="8,5"/>
<rect x="44.0" y="522.0" width="1282.0" height="484.0" rx="0" fill="none" stroke="#444" stroke-width="1.2"/>
<polygon points="44.0,522.0 80.0,522.0 80.0,534.0 73.0,542.0 44.0,542.0" fill="#eee" stroke="#444" stroke-width="1.2"/>
<text x="51.0" y="536.0" font-family="Arial, Helvetica, sans-serif" font-size="11.5" text-anchor="start" font-weight="bold" fill="#111">alt</text>
<line x1="44.0" y1="574.0" x2="1326.0" y2="574.0" stroke="#444" stroke-width="1.2" stroke-dasharray="8,5"/>
<line x1="44.0" y1="638.0" x2="1326.0" y2="638.0" stroke="#444" stroke-width="1.2" stroke-dasharray="8,5"/>
<rect x="66.0" y="732.0" width="1238.0" height="70.0" rx="0" fill="none" stroke="#444" stroke-width="1.2"/>
<polygon points="66.0,732.0 102.0,732.0 102.0,744.0 95.0,752.0 66.0,752.0" fill="#eee" stroke="#444" stroke-width="1.2"/>
<text x="73.0" y="746.0" font-family="Arial, Helvetica, sans-serif" font-size="11.5" text-anchor="start" font-weight="bold" fill="#111">opt</text>
<line x1="147.5" y1="198.0" x2="362.5" y2="198.0" stroke="#222" stroke-width="1.4"/>
<polygon points="352.4,202.3 362.5,198.0 352.4,193.7" fill="#222" stroke="#222" stroke-width="1.4"/>
<text x="255.0" y="192.0" font-family="Arial, Helvetica, sans-serif" font-size="12.5" text-anchor="middle" font-weight="normal" fill="#111">select reserved item, choose 'Mark Returned'</text>
<line x1="362.5" y1="236.0" x2="577.5" y2="236.0" stroke="#222" stroke-width="1.4"/>
<polygon points="567.4,240.3 577.5,236.0 567.4,231.7" fill="#222" stroke="#222" stroke-width="1.4"/>
<text x="470.0" y="230.0" font-family="Arial, Helvetica, sans-serif" font-size="12.5" text-anchor="middle" font-weight="normal" fill="#111">POST /api/v1/reservations/{id}/return</text>
<polyline points="577.5,264.0 611.5,264.0 611.5,282.0 577.5,282.0" fill="none" stroke="#222" stroke-width="1.4"/>
<polygon points="587.6,277.7 577.5,282.0 587.6,286.3" fill="#222" stroke="#222" stroke-width="1.4"/>
<text x="619.5" y="275.0" font-family="Arial, Helvetica, sans-serif" font-size="12.5" text-anchor="start" font-weight="normal" fill="#111">validate session (30 min idle), role = Technician</text>
<text x="66.0" y="326.0" font-family="Arial, Helvetica, sans-serif" font-size="11.5" text-anchor="start" font-weight="normal" fill="#111" font-style="italic">[session expired / role != Lab Technician / malformed id]</text>
<line x1="577.5" y1="356.0" x2="362.5" y2="356.0" stroke="#222" stroke-width="1.4" stroke-dasharray="7,4"/>
<polyline points="372.6,351.7 362.5,356.0 372.6,360.3" fill="none" stroke="#222" stroke-width="1.4"/>
<text x="470.0" y="350.0" font-family="Arial, Helvetica, sans-serif" font-size="12.5" text-anchor="middle" font-weight="normal" fill="#111">401 / 403 / 400 error response</text>
<text x="34.0" y="378.0" font-family="Arial, Helvetica, sans-serif" font-size="11.5" text-anchor="start" font-weight="normal" fill="#111" font-style="italic">[authorized and valid]</text>
<line x1="577.5" y1="420.0" x2="792.5" y2="420.0" stroke="#222" stroke-width="1.4"/>
<polygon points="782.4,424.3 792.5,420.0 782.4,415.7" fill="#222" stroke="#222" stroke-width="1.4"/>
<text x="685.0" y="414.0" font-family="Arial, Helvetica, sans-serif" font-size="12.5" text-anchor="middle" font-weight="normal" fill="#111">recordReturn(reservationId, technicianId)</text>
<line x1="792.5" y1="458.0" x2="1007.5" y2="458.0" stroke="#222" stroke-width="1.4"/>
<polygon points="997.4,462.3 1007.5,458.0 997.4,453.7" fill="#222" stroke="#222" stroke-width="1.4"/>
<text x="900.0" y="452.0" font-family="Arial, Helvetica, sans-serif" font-size="12.5" text-anchor="middle" font-weight="normal" fill="#111">getReservation(reservationId)</text>
<line x1="1007.5" y1="496.0" x2="792.5" y2="496.0" stroke="#222" stroke-width="1.4" stroke-dasharray="7,4"/>
<polyline points="802.6,491.7 792.5,496.0 802.6,500.3" fill="none" stroke="#222" stroke-width="1.4"/>
<text x="900.0" y="490.0" font-family="Arial, Helvetica, sans-serif" font-size="12.5" text-anchor="middle" font-weight="normal" fill="#111">reservation (status, slotEnd) or none</text>
<text x="88.0" y="536.0" font-family="Arial, Helvetica, sans-serif" font-size="11.5" text-anchor="start" font-weight="normal" fill="#111" font-style="italic">[not found]</text>
<line x1="792.5" y1="566.0" x2="577.5" y2="566.0" stroke="#222" stroke-width="1.4" stroke-dasharray="7,4"/>
<polyline points="587.6,561.7 577.5,566.0 587.6,570.3" fill="none" stroke="#222" stroke-width="1.4"/>
<text x="685.0" y="560.0" font-family="Arial, Helvetica, sans-serif" font-size="12.5" text-anchor="middle" font-weight="normal" fill="#111">ReservationNotFound  (API Layer returns 404)</text>
<text x="56.0" y="588.0" font-family="Arial, Helvetica, sans-serif" font-size="11.5" text-anchor="start" font-weight="normal" fill="#111" font-style="italic">[status != Confirmed (already returned / cancelled)]</text>
<line x1="792.5" y1="630.0" x2="577.5" y2="630.0" stroke="#222" stroke-width="1.4" stroke-dasharray="7,4"/>
<polyline points="587.6,625.7 577.5,630.0 587.6,634.3" fill="none" stroke="#222" stroke-width="1.4"/>
<text x="685.0" y="624.0" font-family="Arial, Helvetica, sans-serif" font-size="12.5" text-anchor="middle" font-weight="normal" fill="#111">InvalidState  (API Layer returns 409)</text>
<text x="56.0" y="652.0" font-family="Arial, Helvetica, sans-serif" font-size="11.5" text-anchor="start" font-weight="normal" fill="#111" font-style="italic">[status = Confirmed]</text>
<polyline points="792.5,684.0 826.5,684.0 826.5,702.0 792.5,702.0" fill="none" stroke="#222" stroke-width="1.4"/>
<polygon points="802.6,697.7 792.5,702.0 802.6,706.3" fill="#222" stroke="#222" stroke-width="1.4"/>
<text x="834.5" y="695.0" font-family="Arial, Helvetica, sans-serif" font-size="12.5" text-anchor="start" font-weight="normal" fill="#111">returnTime = now(); late = returnTime &gt; slotEnd</text>
<text x="110.0" y="746.0" font-family="Arial, Helvetica, sans-serif" font-size="11.5" text-anchor="start" font-weight="normal" fill="#111" font-style="italic">[late = true   «extend» UC-12 Apply Late-Return Penalty]</text>
<polyline points="792.5,766.0 826.5,766.0 826.5,784.0 792.5,784.0" fill="none" stroke="#222" stroke-width="1.4"/>
<polygon points="802.6,779.7 792.5,784.0 802.6,788.3" fill="#222" stroke="#222" stroke-width="1.4"/>
<text x="834.5" y="777.0" font-family="Arial, Helvetica, sans-serif" font-size="12.5" text-anchor="start" font-weight="normal" fill="#111">penaltyFlag = true</text>
<line x1="792.5" y1="840.0" x2="1007.5" y2="840.0" stroke="#222" stroke-width="1.4"/>
<polygon points="997.4,844.3 1007.5,840.0 997.4,835.7" fill="#222" stroke="#222" stroke-width="1.4"/>
<text x="900.0" y="834.0" font-family="Arial, Helvetica, sans-serif" font-size="12.5" text-anchor="middle" font-weight="normal" fill="#111">saveReturn(id, returnTime, penaltyFlag, Returned)</text>
<line x1="1007.5" y1="878.0" x2="792.5" y2="878.0" stroke="#222" stroke-width="1.4" stroke-dasharray="7,4"/>
<polyline points="802.6,873.7 792.5,878.0 802.6,882.3" fill="none" stroke="#222" stroke-width="1.4"/>
<text x="900.0" y="872.0" font-family="Arial, Helvetica, sans-serif" font-size="12.5" text-anchor="middle" font-weight="normal" fill="#111">saved</text>
<line x1="792.5" y1="916.0" x2="1222.5" y2="916.0" stroke="#222" stroke-width="1.4"/>
<polygon points="1212.4,920.3 1222.5,916.0 1212.4,911.7" fill="#222" stroke="#222" stroke-width="1.4"/>
<text x="1007.5" y="910.0" font-family="Arial, Helvetica, sans-serif" font-size="12.5" text-anchor="middle" font-weight="normal" fill="#111">log(technicianId, RETURN, id, returnTime, penaltyFlag)</text>
<line x1="792.5" y1="954.0" x2="577.5" y2="954.0" stroke="#222" stroke-width="1.4" stroke-dasharray="7,4"/>
<polyline points="587.6,949.7 577.5,954.0 587.6,958.3" fill="none" stroke="#222" stroke-width="1.4"/>
<text x="685.0" y="948.0" font-family="Arial, Helvetica, sans-serif" font-size="12.5" text-anchor="middle" font-weight="normal" fill="#111">return result</text>
<line x1="577.5" y1="992.0" x2="362.5" y2="992.0" stroke="#222" stroke-width="1.4" stroke-dasharray="7,4"/>
<polyline points="372.6,987.7 362.5,992.0 372.6,996.3" fill="none" stroke="#222" stroke-width="1.4"/>
<text x="470.0" y="986.0" font-family="Arial, Helvetica, sans-serif" font-size="12.5" text-anchor="middle" font-weight="normal" fill="#111">200 OK {returnTimestamp, penaltyFlag}</text>
<line x1="362.5" y1="1058.0" x2="147.5" y2="1058.0" stroke="#222" stroke-width="1.4" stroke-dasharray="7,4"/>
<polyline points="157.6,1053.7 147.5,1058.0 157.6,1062.3" fill="none" stroke="#222" stroke-width="1.4"/>
<text x="255.0" y="1052.0" font-family="Arial, Helvetica, sans-serif" font-size="12.5" text-anchor="middle" font-weight="normal" fill="#111">return confirmation (penalty flag shown)</text>
</svg>